<mxfile host="app.diagrams.net" modified="2024-04-19T13:33:40.049Z" agent="Mozilla/5.0 (Windows NT 10.0; Win64; x64) AppleWebKit/537.36 (KHTML, like Gecko) Chrome/123.0.0.0 Safari/537.36" etag="di4cqYFLLjmeItBLgu-R" version="24.2.3" type="device">
  <diagram name="Página-1" id="o8GLO7vjCRuVQIIKJ7Ln">
    <mxGraphModel dx="1434" dy="746" grid="1" gridSize="10" guides="1" tooltips="1" connect="1" arrows="1" fold="1" page="1" pageScale="1" pageWidth="827" pageHeight="1169" math="0" shadow="0">
      <root>
        <mxCell id="0" />
        <mxCell id="1" parent="0" />
        <mxCell id="M2kfYy8kuptf98-jS3ar-1" value="Usuario registrado&lt;div&gt;&lt;br&gt;&lt;/div&gt;" style="shape=umlActor;verticalLabelPosition=bottom;verticalAlign=top;html=1;" vertex="1" parent="1">
          <mxGeometry x="90" y="330" width="30" height="60" as="geometry" />
        </mxCell>
        <mxCell id="M2kfYy8kuptf98-jS3ar-2" value="&lt;div&gt;&lt;br&gt;&lt;/div&gt;&lt;div&gt;&lt;br&gt;&lt;/div&gt;" style="shape=umlFrame;whiteSpace=wrap;html=1;pointerEvents=0;" vertex="1" parent="1">
          <mxGeometry x="210" y="250" width="500" height="260" as="geometry" />
        </mxCell>
        <mxCell id="M2kfYy8kuptf98-jS3ar-3" value="Recuperar Contraseña" style="ellipse;whiteSpace=wrap;html=1;" vertex="1" parent="1">
          <mxGeometry x="240" y="325" width="120" height="65" as="geometry" />
        </mxCell>
        <mxCell id="M2kfYy8kuptf98-jS3ar-4" value="Enviar Correo Electronico" style="ellipse;whiteSpace=wrap;html=1;" vertex="1" parent="1">
          <mxGeometry x="520" y="320" width="130" height="70" as="geometry" />
        </mxCell>
        <mxCell id="M2kfYy8kuptf98-jS3ar-6" value="&amp;lt;&amp;lt;include&amp;gt;&amp;gt;" style="endArrow=open;endSize=12;dashed=1;html=1;rounded=0;exitX=1.008;exitY=0.308;exitDx=0;exitDy=0;exitPerimeter=0;entryX=0;entryY=0.5;entryDx=0;entryDy=0;" edge="1" parent="1" target="M2kfYy8kuptf98-jS3ar-4">
          <mxGeometry width="160" relative="1" as="geometry">
            <mxPoint x="360.96000000000004" y="355.02" as="sourcePoint" />
            <mxPoint x="520" y="340" as="targetPoint" />
          </mxGeometry>
        </mxCell>
        <mxCell id="M2kfYy8kuptf98-jS3ar-8" value="" style="endArrow=none;html=1;rounded=0;" edge="1" parent="1" target="M2kfYy8kuptf98-jS3ar-3">
          <mxGeometry relative="1" as="geometry">
            <mxPoint x="130" y="360" as="sourcePoint" />
            <mxPoint x="290" y="360" as="targetPoint" />
          </mxGeometry>
        </mxCell>
      </root>
    </mxGraphModel>
  </diagram>
</mxfile>
